Patient4_TMGait_0pt6_01_left_42_EMG.mot
version=1
nRows=37
nColumns=33
inDegrees=no
endheader
time	1LAddLong	2LGlutMax	3LGlutMed	4LIliopsoas	5LSemiMemb	6LBicFemLong	7LRecFem	8LVastMed	9LVastLat	10LGasMed	11LTibAnt	12lTibPost	13LPeroneusLong	14LSol	15LExtDigLong	16LFlexDigLong	17RAddLong	18RGlutMax	19RGlutMed	20RIliopsoas	21RSemiMemb	22RBicFemLong	23RRecFem	24RVastMed	25RVastLat	26RGasMed	27RTibAnt	28RTibPost	29RPeroneusLong	30RSol	31RExtDigLong	32RFlexDigLong
51.925	0.004883	-0.33447	-0.19653	0.012512	0.006104	0.021667	0.030823	0.003052	0.032806	-0.3122	0.001221	-0.25711	-0.31616	-0.99503	0.037384	0.043793	0.14313	0.092926	0.62607	0.036163	-0.22919	-0.32394	-0.053101	0.12192	-0.57877	-0.023193	0.050354	-0.003052	-0.23789	-0.004425	-0.001068	-0.002441
51.926	0.00824	-0.32227	-0.20721	0.023956	0.006866	0.04715	0.038757	0.011292	0.053711	-0.16495	-0.008087	-0.25314	-0.29953	-0.64728	-0.012054	-0.029144	0.15427	0.056152	0.49377	0.036011	-0.89569	-0.21088	0.057983	0.032806	-0.65582	-0.00946	0.014648	-0.002899	0.054626	0.063171	-0.000305	-0.003052
51.927	0.014343	-0.31418	-0.215	0.025024	0.015564	0.027618	0.01709	0.005646	0.080261	-0.25497	0.001984	0.98419	-0.25436	-0.15869	-0.078888	-0.091248	0.050812	0.070343	0.33249	0.024872	-1.2073	-0.051575	0.06073	0.036926	-0.68207	0.014496	0.008545	-0.007629	0.11444	0.091248	0.000916	-0.001678
51.928	-0.001221	-0.28442	-0.19348	-0.015869	0.011597	0.015717	0.032349	0.000305	0.085144	-0.18112	0.011902	-0.1442	-0.18524	0.43015	-0.16266	-0.00061	-0.15839	0.055847	0.54459	-0.027161	-0.95688	0.22278	-0.14664	0.13443	-0.25864	0.025177	0.012817	-0.006714	0.056305	0.082092	-0.00061	-0.003357
51.929	-0.001526	-0.26154	-0.16144	-0.015564	-0.0177	0.056458	0.057678	0.005646	0.092468	-0.31708	0.002136	0.18051	-0.051117	0.52216	-0.16876	-0.22507	-0.29251	-0.013885	0.55954	-0.031128	-0.21774	0.30151	-0.28473	0.15228	0.25513	0.017853	0.008392	-0.003662	-0.035858	0.053406	-0.002899	-0.006714
51.93	0.006714	-0.28961	-0.08194	-0.003204	-0.027008	0.001678	0.032501	0.007477	0.093994	-0.43167	0.000916	-0.3305	0.24567	0.35324	-0.079651	-0.076294	-0.21133	-0.087433	0.29022	0.017242	0.54398	0.30304	-0.29663	0.1622	0.44617	0.01297	-0.028381	0.003204	-0.091248	0.023804	-0.004883	-0.012665
51.931	0.006561	-0.3154	-0.088196	0.005798	0.014954	-0.005951	0.044861	-0.00061	0.08728	-0.3862	-0.007782	-0.026398	0.41626	0.3595	-0.033875	0.045929	-0.040894	-0.087128	0.071869	0.015869	0.38818	0.21606	-0.15045	0.083313	0.14893	0.009003	-0.04364	-0.001373	-0.064392	0.020447	-0.007172	-0.006256
51.932	-0.004883	-0.33539	-0.072784	0.006256	0.039063	0.041351	0.037994	0.010223	0.082397	-0.32638	0.000458	-0.083313	0.37949	0.054474	-0.089417	0.043335	-0.015869	-0.090179	0.31357	0.02243	0.18646	0.063629	-0.058441	0.04425	-0.20721	0.001984	-0.000153	-0.003204	-0.099945	-0.007019	-0.006561	-0.014038
51.933	-0.001984	-0.32272	-0.042725	0.012817	0.027161	0.036774	0.048218	0.00885	0.090942	-0.25559	0.011139	-0.051422	0.20783	-0.55725	-0.12726	0.049286	-0.079956	0.00351	0.27878	0.03952	0.57831	0.028381	-0.07843	0.16159	-0.43411	0.000153	0.058899	-0.002747	0.02243	0.030518	-0.00061	-0.006104
51.934	-0.005493	-0.3096	0.028076	0	0.007477	0.010529	0.049286	0.00824	0.086975	-0.18051	0.017395	-0.037842	0.11292	-0.6752	-0.10513	0.070038	-0.10223	-0.10147	0.40527	0.002594	0.59296	-0.12253	0.061951	0.12009	-0.41702	-0.001526	0.29175	-0.003052	0.076599	0.003204	-0.002289	-0.00885
51.935	-0.003357	-0.31296	0.013123	-0.008087	0.00946	-0.011139	0.032959	0.003204	0.081329	-0.051117	0.005798	-0.036469	0.032043	-0.65826	-0.033569	-0.16403	-0.077057	-0.14618	0.26291	0.015411	0.31448	-0.1886	-0.02594	0.17807	-0.089264	0.005951	0.41214	-0.00946	-0.046082	-0.032959	0	-0.009003
51.936	-0.005341	-0.25345	0.020294	0.011139	0.010071	-0.051727	0.028381	-0.002899	0.076752	-0.23758	-0.00885	-0.027618	0.022125	-0.5275	0.026398	0.18616	0.025024	-0.076752	0.40665	-0.004272	0.50751	-0.3302	0.090332	0.092621	0.1564	0.007477	0.15869	-0.003357	-0.50201	0.000153	-0.00061	-0.005188
51.937	0.001221	-0.2565	0.082855	0.008698	-0.003662	-0.045166	0.015259	0.012207	0.075989	-0.2742	0.003967	-0.033417	0.013123	-0.054321	0.047913	-0.055847	0.12985	-0.081024	0.61432	-0.035858	0.50949	-0.29999	0.26032	0.15335	0.56717	0.00412	0.023956	-0.00351	-0.40237	-0.003662	-0.002441	-0.000305
51.938	-0.003815	-0.24094	0.13412	0.018768	-0.004883	-0.045319	0.041656	0.005646	0.081635	-0.17349	0.005493	-0.03067	0.006104	0.13748	0.054016	-0.1564	0.14297	-0.20981	0.44342	-0.081329	0.11551	-0.039368	0.22492	0.16586	0.95337	0.003815	-0.13184	-0.00946	0.746	-0.022125	-0.003357	-0.001831
51.939	0.000458	-0.2121	0.12146	0.008087	0.021515	-0.076141	0.003662	-0.004578	0.077362	-0.11322	0.010223	-0.026703	-0.003815	0.23086	0.052643	-0.086517	0.14801	-0.21408	0.60501	-0.088348	-0.13596	0.052032	0.13046	-0.04715	1.0353	-0.001678	-0.068817	-0.011292	0.26108	0.014496	-0.000916	-0.002441
51.94	0.010986	-0.21118	0.11536	0.001984	0.033569	-0.059662	-0.020599	-0.001984	0.060425	-0.093994	0.003052	-0.019989	-0.005493	0.26932	0.012054	-0.098724	0.10284	-0.099335	0.27222	-0.090332	-0.34119	-0.073395	-0.044556	-0.14328	0.48996	0.004578	-0.19486	-0.00351	0.64667	0.007172	-0.001984	0.005341
51.941	0	-0.23453	0.12558	0.011292	0.019836	-0.020294	0.006866	0.004425	0.054016	-0.095978	0.005646	-0.007782	-0.005798	0.40131	-0.05127	0.14786	0.015106	-0.13046	-0.17944	-0.029907	-0.56503	-0.11261	-0.050507	-0.25192	-0.095215	0.027008	-0.23727	-0.003815	0.76492	-0.043182	0.007935	0.002899
51.942	-0.001068	-0.22079	0.11246	0.005493	0.009308	0.030975	-0.005493	0.009155	0.045929	-0.085144	0.062103	-0.00885	-0.008087	0.28015	-0.007629	0.073242	-0.13641	-0.11932	-0.4773	0.084686	0.1059	0.075073	-0.07309	0.13687	-0.33432	0.036163	-0.20081	-0.010529	-0.016479	-0.018921	0.002747	0.000305
51.943	-0.002441	-0.19211	0.065002	0.015869	-0.001221	0.016022	-0.048218	-0.000153	0.046692	-0.04303	0.038147	-0.011597	-0.00824	0.096436	0.023499	-0.008545	-0.16083	-0.11032	-0.41321	0.090637	0.61829	0.16327	0.14633	0.26657	-0.61279	0.008698	-0.11978	-0.007935	-0.3241	0.018158	0.000763	-0.007019
51.944	-0.005035	-0.18906	0.084381	-0.006256	-0.005188	-0.007782	-0.06073	0.005035	0.035553	-0.038452	0.017242	-0.015259	0.004578	0.14145	0.04303	-0.046082	-0.084839	-0.052948	-0.19455	0.070496	0.63156	0.060883	0.14725	-0.14252	-0.26245	-0.018768	-0.023651	-0.012817	-0.1207	0.21896	0.000458	-0.013123
51.945	-0.002136	-0.16129	0.20325	-0.010529	-0.004883	-0.028229	-0.048828	0.001526	0.030212	0.010681	-0.002594	-0.008392	0.019073	0.12909	0.066681	-0.021515	-0.071259	-0.066071	0.15884	-0.062256	0.5661	-0.026703	0.11093	-0.40192	0.26062	-0.003357	-0.048828	-0.002594	-0.27313	0.24063	0.001526	-0.015564
51.946	-0.003815	-0.19302	0.2269	-0.006104	0.002136	0.005188	-0.043793	0.009308	0.032501	0.10529	0.001526	-0.004425	0.018616	0.14526	0.078888	-0.010986	-0.056305	0.073242	0.26108	-0.16205	0.52902	0.053558	0.032196	-0.17425	0.54688	-0.001221	-0.075378	-0.005798	-0.094452	0.12177	-0.001373	-0.01236
51.947	-0.005493	-0.16235	0.24521	-0.001221	-0.001526	0.002441	-0.058289	0.007019	0.019989	0.10941	0.005646	-0.007019	0.034485	0.15671	0.081787	-0.01297	-0.04837	0.12604	0.025635	-0.11643	0.14206	0.005341	0.24689	0.7962	0.20783	-0.002594	-0.000305	0.003052	0.14114	0.11017	0.001373	-0.012817
51.948	-0.004883	-0.22201	0.25528	0	0.011139	-0.011292	-0.066071	0.007172	0.016174	0.067902	0.007782	-0.003967	0.036316	0.095673	0.070953	-0.008087	-0.04776	0.097504	-0.084229	-0.083008	0.023346	-0.014648	0.21393	0.82611	0.01709	-0.010071	0.020752	-0.006409	0.39734	0.092926	-0.004425	-0.012512
51.949	-0.002136	-0.18524	0.25742	0.01297	0.024414	-0.012665	-0.067902	0.000763	0.015869	0.027161	0.005798	0.002289	0.021057	0.053101	0.061951	-0.000763	-0.035095	0.042267	-0.12405	0.081635	0.04776	0.046692	0.24643	0.43564	0.21149	0.000305	-0.063934	-0.007477	0.27863	-0.017548	-0.001373	-0.004425
51.95	-0.005798	-0.18921	0.26672	0.01358	0.019989	0.072784	-0.086212	0.003052	0.02655	0.040436	-0.000153	-0.001068	0.023041	0.03479	0.057526	-0.005341	-0.056915	0.076141	0.35187	0.20584	0.19959	0.16907	0.17456	-0.16922	0.14481	0.010376	-0.047455	-0.004578	-0.013275	-0.06546	-0.001526	-0.006104
51.951	-0.000763	-0.20767	0.27771	0.023804	0.014954	0.070801	-0.098267	0.005493	0.03952	0.29404	0.003204	0.006866	0.022278	0.020599	0.07782	-0.003357	-0.11154	0.063324	1.2964	0.11475	0.42999	0.30762	-0.006409	-0.61203	0.18936	-0.013428	0.031891	0.002899	-0.15518	-0.025482	0.001373	-0.010529
51.952	-0.001373	-0.18753	0.26779	0.018005	0.015564	0.033722	-0.099792	0.003052	0.033722	0.20203	0.005798	0.005341	0.01358	-0.012817	0.066071	-0.00412	-0.14099	0.084686	1.2447	0.02121	0.392	0.30716	-0.34714	-0.65018	0.13657	-0.02121	0.051575	-0.00473	-0.16342	0.027466	-0.000763	-0.009766
51.953	-0.010529	-0.1561	0.27451	0.016785	-0.000763	0.02533	-0.089417	0.006714	0.023956	-0.002136	0.001526	0.001373	-0.030518	-0.06134	0.047455	-0.022125	-0.10864	0.034637	0.98892	0.003357	0.40649	0.29846	-0.70862	-0.30746	0.40207	-0.021362	0.045013	-0.00351	-0.20676	0.0177	0.001373	-0.019226
51.954	-0.008545	-0.13596	0.26199	-0.002441	-0.016174	0.062256	-0.093079	0.006409	0.019531	0.049438	0.005035	0.032501	-0.045776	0.004272	0.033875	-0.070801	-0.042725	0.085297	0.71777	0.048523	0.23331	0.29343	-0.4277	-0.11887	0.41992	-0.023956	0.052338	-0.005493	-0.15717	0.006256	-0.000458	-0.017548
51.955	-0.010681	-0.12528	0.28534	-0.003204	-0.033875	0.045624	-0.10132	0.00885	0.016632	0.16434	0.003662	-0.016479	-0.054932	0.13184	0.031738	-0.040283	-0.020294	0.16449	0.28473	0.11749	0.57526	0.26306	-0.001068	-0.070343	0.17181	0.012207	0.050964	-0.011292	-0.044403	-0.02533	-0.000458	-0.010223
51.956	0.00061	-0.14557	0.32105	0.002594	-0.037384	-0.019531	-0.11292	0.002747	0.028534	0.15228	0.001526	0.082397	-0.024567	0.28488	0.032806	0.023651	0.002899	0.1091	0.53055	0.08194	0.84885	0.22842	-0.026703	0.10239	-0.097351	0.014496	-0.00824	-0.007477	0.15457	0.015869	-0.001068	-0.005035
51.957	0.007019	-0.084686	0.36484	-0.00061	-0.025024	-0.05188	-0.085907	0.006714	0.014191	0.096436	0.009613	0.006714	-0.026093	0.57068	0.037689	0.039215	0.033875	-0.14389	0.57816	-0.010681	0.69092	0.30945	-0.23789	-0.029602	-0.081787	-0.005646	0.002899	-0.002594	0.18875	0.020905	0.001984	-0.006256
51.958	0.005188	-0.072784	0.3865	-0.006561	0.002136	-0.060883	-0.078888	0.002136	-0.009155	-0.00946	0.003204	0.014343	-0.070953	0.44403	0.029297	0.036163	0.024719	-0.30334	0.52567	-0.052643	0.61645	0.42267	-0.23926	-0.13001	-0.18845	0.001526	0.083313	-0.001526	0.30716	0.012512	0.000763	-0.000763
51.959	-0.002747	-0.063019	0.4129	0.000458	0.028992	-0.022888	-0.098114	-0.004883	0.006104	-0.070801	0.00824	-0.025482	-0.014496	0.26916	0.001831	0.005341	0.019989	-0.32959	0.17868	-0.1178	0.48248	0.39856	-0.069122	-0.088196	-0.27634	-0.003357	0.21271	-0.00824	0.23697	-0.002747	0.001984	0.004272
51.96	0.005951	-0.071869	0.43976	0.007019	0.006561	0.057373	-0.1329	-0.003662	0.00412	-0.037537	0.006561	-0.012512	0.05188	-0.15076	-0.015717	-0.010681	0.037689	-0.68268	-0.20874	-0.11215	0.31494	0.39856	0.075073	0.12802	-0.51819	-0.005646	0.45853	-0.007019	0.095825	0.00824	0	-0.004883
51.961	-0.00351	-0.094757	0.47333	0.004883	0.002899	0.018005	-0.12817	0.020447	0.019073	-0.003357	0.005493	-0.000305	0.043945	-0.14557	-0.002441	-0.015717	0.077972	-0.75974	-0.41031	-0.011902	0.2182	0.29083	-0.03418	0.4718	-0.64819	-0.022278	0.86029	-0.003052	-0.13367	-0.016632	-0.002441	-0.007019
